
<svg id="icons" xmlns="http://www.w3.org/2000/svg" viewBox="0 0 64 64"><title>sheep</title><g id="sheep"><g id="fill"><path d="M58.25,33.33a2.11,2.11,0,0,1-2.41,1.88,2.17,2.17,0,0,1-1.23,4.17,2.13,2.13,0,0,1,1,2.88,2.16,2.16,0,0,1-2.89,1,2.17,2.17,0,0,1-2.45,3.58,2.18,2.18,0,0,1-3,3.18,2.17,2.17,0,0,1-.42,3,2.37,2.37,0,0,1-1.37.44,2.07,2.07,0,0,1-1.78-1,2.12,2.12,0,0,1-.88,3.05,2.15,2.15,0,0,1-2.93-.94,2.18,2.18,0,0,1-4.2,1.17,2.18,2.18,0,1,1-4.34.34,2.18,2.18,0,0,1-4.33-.54,2.18,2.18,0,0,1-4.12-1.43,2.18,2.18,0,1,1-3.7-2.29h0a2.18,2.18,0,1,1-3.44-2.67A2.17,2.17,0,0,1,12.93,46a2.19,2.19,0,0,1-3-.71,2.16,2.16,0,0,1,.7-3,2.17,2.17,0,0,1-1.69-4,2.17,2.17,0,0,1-1.07-4.21,2.17,2.17,0,0,1-2.35-2A2.2,2.2,0,0,1,6.68,30a1.89,1.89,0,0,1,1-.24,2,2,0,0,1-1.28-.44,2.31,2.31,0,0,1-.82-1.93A2.21,2.21,0,0,1,6.2,26a2.14,2.14,0,0,1,1.69-.58,2.09,2.09,0,0,1-1.53-2.65.65.65,0,0,1,0-.13A1.55,1.55,0,0,1,6.71,22,2.13,2.13,0,0,1,9,21.18a2.17,2.17,0,1,1,1.82-3.94,2.18,2.18,0,0,1,2.49-3.57A2.17,2.17,0,1,1,16.4,10.6a2.16,2.16,0,0,1,.56-3,2.28,2.28,0,0,1,1.28-.39,2.08,2.08,0,0,1,1.84,1.07A2.18,2.18,0,1,1,24,6.31a2.18,2.18,0,0,1,4.23-1A2.18,2.18,0,0,1,32.55,5a2.18,2.18,0,0,1,4.34.48,2.18,2.18,0,0,1,4.17,1.29,2.17,2.17,0,1,1,3.79,2.12h0A2.12,2.12,0,0,1,48,8.36a2.09,2.09,0,0,1,.4,3,2.17,2.17,0,1,1,2.92,3.21,2.15,2.15,0,0,1,3,.68,2.12,2.12,0,0,1-.67,3,2.14,2.14,0,0,1,2.57.73s0,0,0,0a2,2,0,0,1,.26.45,2.15,2.15,0,0,1-1.19,2.82,2.08,2.08,0,0,1,2.13.76,2.54,2.54,0,0,1,.44.92,2,2,0,0,1,0,.34h0a2.14,2.14,0,0,1-1.71,2.23A2.1,2.1,0,0,1,57.7,27a2.16,2.16,0,0,1,.76,1.61,2.08,2.08,0,0,1-1.3,2.09,1.94,1.94,0,0,1-.92.17h0a2.1,2.1,0,0,1,.7.16A2.08,2.08,0,0,1,58.25,33.33Z" fill="#dbd2bd"/><path d="M57.92,24.31a2,2,0,0,1,.33,1.49A2.19,2.19,0,0,1,57.7,27a2.08,2.08,0,0,1-1.86.67,2.18,2.18,0,0,1,1.46,2.7c0,.11-.09.22-.14.33a1.52,1.52,0,0,1-.22.34,2.12,2.12,0,0,1-2.33.8,2.11,2.11,0,0,1,1,2.87,2.15,2.15,0,0,1-2.89,1,2.18,2.18,0,0,1-2.45,3.6,2.17,2.17,0,0,1-3,3.17,2.15,2.15,0,0,1-.42,3,2.39,2.39,0,0,1-1.37.44,2.06,2.06,0,0,1-1.78-1,2.18,2.18,0,1,1-3.81,2.11,2.18,2.18,0,0,1-4.2,1.18,2.18,2.18,0,1,1-4.34.34,2.18,2.18,0,0,1-4.33-.54,2.18,2.18,0,0,1-4.12-1.44,2.18,2.18,0,1,1-3.7-2.29h0a2.18,2.18,0,1,1-3.44-2.67,2.17,2.17,0,0,1-2.85-3.27,2.21,2.21,0,0,1-3-.71,2.19,2.19,0,0,1,.7-3,2.13,2.13,0,0,1-2.83-1.16A2.11,2.11,0,0,1,9,30.74,2.17,2.17,0,0,1,6.68,30a2,2,0,0,1-.33-.68l0-.12a2.11,2.11,0,0,1,1.56-2.63A2.14,2.14,0,0,1,6.2,26c-.37-.35-.36-2.94.2-3.36a2,2,0,0,1,1.23-.41A2,2,0,0,1,6.71,22,2.13,2.13,0,0,1,9,21.18a2.17,2.17,0,1,1,1.82-3.94,2.18,2.18,0,0,1,2.49-3.57A2.17,2.17,0,1,1,16.4,10.6a2.16,2.16,0,0,1,.56-3,2.28,2.28,0,0,1,1.28-.39,2.08,2.08,0,0,1,1.84,1.07A2.18,2.18,0,1,1,24,6.31a2.18,2.18,0,0,1,4.23-1A2.18,2.18,0,0,1,32.55,5a2.18,2.18,0,0,1,4.34.48,2.18,2.18,0,0,1,4.17,1.29,2.17,2.17,0,1,1,3.79,2.12h0A2.12,2.12,0,0,1,48,8.36a2.09,2.09,0,0,1,.4,3,2.17,2.17,0,1,1,2.92,3.21,2.15,2.15,0,0,1,3,.68,2.12,2.12,0,0,1-.67,3,2.14,2.14,0,0,1,2.57.73h0c1.18-.07.43,4.36,0,4.34a2.18,2.18,0,0,1,1.68.95Z" fill="#f2e8d1"/><path d="M30,25.34a4.15,4.15,0,0,1-4.15-3.74h0a4.2,4.2,0,0,1-3.64-2.1l-.41-.25-.08-.46a4.62,4.62,0,0,1-.06-.66,4.19,4.19,0,0,1,5.84-3.81h0A5.83,5.83,0,0,1,38.55,15h0a3.55,3.55,0,0,1,4.78,3.31,2.45,2.45,0,0,1,0,.27l0,.47-.39.3A3.55,3.55,0,0,1,40,21.17a3.76,3.76,0,0,1-6.62,2.43A4.19,4.19,0,0,1,30,25.34Z" fill="#fbf7ef"/><path d="M32.18,44.46a14.6,14.6,0,0,1-13.46-20.4h0a7.79,7.79,0,0,1-2.67.63,4.24,4.24,0,0,1-4-3.84c0-1.5,2.51-2.18,4.84-2.18H17c1.07,0,2.85,0,4.32.12l.68.06.24.72a4.15,4.15,0,0,0,2.9,2l.65.11.18.64a4.18,4.18,0,0,0,6.79,2l.62-.55.67.48a3.76,3.76,0,0,0,5.88-2.34l.12-.65.64-.17a3.52,3.52,0,0,0,2.14-1.6l.27-.7.67,0c1.12-.05,2.26-.06,3.23-.06h.11c2.33,0,4.84.68,4.84,2.18a4.24,4.24,0,0,1-4,3.84,7.12,7.12,0,0,1-2.24-.47h0a14.48,14.48,0,0,1,1.13,5.63A14.64,14.64,0,0,1,32.18,44.46Z" fill="#ffdbc3"/></g><g id="outline"><path d="M56.73,31.3h0a2.21,2.21,0,1,0,0-4.41,2.16,2.16,0,0,0,1.7-2.61,2.19,2.19,0,0,0-2.62-1.69A2.19,2.19,0,0,0,57,19.72a2.23,2.23,0,0,0-2.9-1.2,2.14,2.14,0,0,0,.68-3,2.19,2.19,0,0,0-3.06-.69,2.12,2.12,0,0,0,.15-3.1,2.19,2.19,0,0,0-3.14-.15,2.12,2.12,0,0,0-.4-3.08A2.19,2.19,0,0,0,45.11,9h0a2.13,2.13,0,0,0-.89-3.09,2.16,2.16,0,0,0-3,.93,2.18,2.18,0,0,0-1.48-2.75A2.21,2.21,0,0,0,37,5.52,2.23,2.23,0,0,0,32.56,5a2.22,2.22,0,0,0-4.43.3,2.14,2.14,0,0,0-2.69-1.59A2.12,2.12,0,0,0,23.82,6.4a2.19,2.19,0,0,0-2.94-1.08,2.14,2.14,0,0,0-1,3h0a2.22,2.22,0,0,0-3.18-.68,2.17,2.17,0,0,0-.57,3.06,2.21,2.21,0,0,0-3.13,0,2.16,2.16,0,0,0,0,3.1,2.2,2.2,0,0,0-3.09.56,2.15,2.15,0,0,0,.54,3,2.17,2.17,0,0,0-2.93,1.08,2.13,2.13,0,0,0,1.08,2.92A2.17,2.17,0,0,0,5.84,23a2.14,2.14,0,0,0,1.57,2.69,2.2,2.2,0,1,0-.24,4.39,2.2,2.2,0,1,0,.23,4.4,2.14,2.14,0,0,0-1.59,2.67,2.16,2.16,0,0,0,2.67,1.6,2.15,2.15,0,0,0-1.16,2.87,2.18,2.18,0,0,0,2.89,1.18,2.19,2.19,0,0,0-.71,3,2.24,2.24,0,0,0,3,.72,2.14,2.14,0,0,0-.2,3.08,2.21,2.21,0,0,0,3.12.24A2.12,2.12,0,0,0,15.75,53,2.18,2.18,0,0,0,19,52.59h0a2.13,2.13,0,0,0,.75,3.12,2.16,2.16,0,0,0,3-.81,2.17,2.17,0,0,0,1.38,2.81A2.2,2.2,0,0,0,27,56.37a2.22,2.22,0,0,0,4.41.55,2.22,2.22,0,0,0,4.43-.34,2.15,2.15,0,0,0,2.75,1.51,2.11,2.11,0,0,0,1.53-2.71,2.21,2.21,0,0,0,3,1,2.13,2.13,0,0,0,.9-3.09h0a2.24,2.24,0,0,0,3.22.54,2.19,2.19,0,0,0,.43-3.08,2.19,2.19,0,0,0,3.12-.11,2.15,2.15,0,0,0-.09-3.1,2.17,2.17,0,0,0,3.07-.6,2.12,2.12,0,0,0-.57-3,2.2,2.2,0,0,0,2.94-1,2.16,2.16,0,0,0-1-2.92,2.2,2.2,0,1,0,1.25-4.22,2.2,2.2,0,1,0,.41-4.38Z" fill="none" stroke="#2d3030" stroke-linecap="round" stroke-linejoin="round" stroke-width="2"/><path d="M47.11,18.67H47c-1,0-2.41,0-3.7.08a2.83,2.83,0,0,0,0-.41,3.54,3.54,0,0,0-3.55-3.53,3.62,3.62,0,0,0-1.23.22,5.83,5.83,0,0,0-11.06-.71A4.26,4.26,0,0,0,25.82,14a4.16,4.16,0,0,0-4.17,4.15,5.36,5.36,0,0,0,.06.7c-1.49-.16-3.44-.16-4.71-.16h-.11c-2.33,0-4.84.68-4.84,2.18a4.24,4.24,0,0,0,4,3.84,8.13,8.13,0,0,0,2.67-.63,14.66,14.66,0,1,0,27,.16,7.19,7.19,0,0,0,2.24.47,4.24,4.24,0,0,0,4-3.84C52,19.35,49.44,18.67,47.11,18.67Z" fill="none" stroke="#2d3030" stroke-linecap="round" stroke-linejoin="round" stroke-width="2"/><path d="M22.2,19.49a4.15,4.15,0,0,0,3.62,2.11h0a4.17,4.17,0,0,0,7.54,2A3.76,3.76,0,0,0,40,21.18h0a3.53,3.53,0,0,0,2.87-1.8" fill="none" stroke="#2d3030" stroke-linecap="round" stroke-linejoin="round" stroke-width="2"/><path d="M27.57,31.31a1.39,1.39,0,1,1-1.39-1.39A1.38,1.38,0,0,1,27.57,31.31Z" fill="#2d3030"/><path d="M39.57,31.31a1.39,1.39,0,1,1-1.39-1.39A1.39,1.39,0,0,1,39.57,31.31Z" fill="#2d3030"/><line x1="32.54" y1="39.41" x2="32.54" y2="37.67" fill="none" stroke="#2d3030" stroke-linecap="round" stroke-linejoin="round" stroke-width="2"/><line x1="30.26" y1="35.7" x2="32.54" y2="37.22" fill="none" stroke="#2d3030" stroke-linecap="round" stroke-linejoin="round" stroke-width="2"/><line x1="32.54" y1="39.41" x2="32.54" y2="37.67" fill="none" stroke="#2d3030" stroke-linecap="round" stroke-linejoin="round" stroke-width="2"/><line x1="34.81" y1="35.7" x2="32.54" y2="37.22" fill="none" stroke="#2d3030" stroke-linecap="round" stroke-linejoin="round" stroke-width="2"/><line x1="41" y1="56" x2="41" y2="61" fill="none" stroke="#2d3030" stroke-linecap="round" stroke-linejoin="round" stroke-width="2"/><line x1="23" y1="55.01" x2="23" y2="61" fill="none" stroke="#2d3030" stroke-linecap="round" stroke-linejoin="round" stroke-width="2"/></g></g></svg>