<?xml version="1.0" encoding="utf-8" standalone="yes"?> <svg width="1000" height="1000" viewBox="-1 -1 31 31" xmlns="http://www.w3.org/2000/svg" xmlns:xlink="http://www.w3.org/1999/xlink" shape-rendering="crispEdges" id="qr code"><rect id="qr background" fill-opacity="1" fill="rgb(255, 255, 255)" x="-1" y="-1" width="31" height="31"></rect><path fill-opacity="1" fill="rgb(0, 0, 0)" id="qr dark pixels" fill-rule="evenodd" d="M 10 0 L 11 0 L 11 2 L 9 2 L 9 3 L 8 3 L 8 1 L 10 1 z M 15 0 L 17 0 L 17 2 L 19 2 L 19 3 L 20 3 L 20 1 L 21 1 L 21 4 L 19 4 L 19 5 L 20 5 L 20 6 L 19 6 L 19 7 L 20 7 L 20 8 L 17 8 L 17 7 L 18 7 L 18 6 L 17 6 L 17 7 L 16 7 L 16 6 L 15 6 L 15 3 L 16 3 L 16 2 L 13 2 L 13 1 L 15 1 zM 17 3 L 18 3 L 18 5 L 16 5 L 16 4 L 17 4 z M 19 0 L 20 0 L 20 1 L 19 1 z M 9 3 L 10 3 L 10 4 L 11 4 L 11 7 L 12 7 L 12 8 L 14 8 L 14 9 L 13 9 L 13 10 L 14 10 L 14 9 L 15 9 L 15 14 L 14 14 L 14 13 L 13 13 L 13 12 L 12 12 L 12 16 L 10 16 L 10 14 L 11 14 L 11 13 L 10 13 L 10 12 L 9 12 L 9 14 L 8 14 L 8 11 L 6 11 L 6 12 L 5 12 L 5 10 L 7 10 L 7 9 L 6 9 L 6 8 L 8 8 L 8 10 L 9 10 L 9 11 L 11 11 L 11 8 L 10 8 L 10 5 L 9 5 L 9 8 L 8 8 L 8 4 L 9 4 z M 12 3 L 13 3 L 13 4 L 14 4 L 14 6 L 13 6 L 13 7 L 12 7 z M 14 6 L 15 6 L 15 8 L 14 8 z M 20 6 L 21 6 L 21 7 L 20 7 z M 0 8 L 2 8 L 2 9 L 3 9 L 3 8 L 4 8 L 4 9 L 5 9 L 5 10 L 2 10 L 2 12 L 1 12 L 1 9 L 0 9 z M 15 8 L 17 8 L 17 9 L 15 9 z M 20 8 L 21 8 L 21 9 L 22 9 L 22 8 L 25 8 L 25 9 L 23 9 L 23 10 L 22 10 L 22 11 L 19 11 L 19 10 L 20 10 z M 26 8 L 28 8 L 28 9 L 26 9 z M 9 9 L 10 9 L 10 10 L 9 10 z M 17 9 L 18 9 L 18 10 L 17 10 z M 25 9 L 26 9 L 26 10 L 28 10 L 28 12 L 29 12 L 29 13 L 27 13 L 27 12 L 26 12 L 26 11 L 25 11 z M 28 9 L 29 9 L 29 10 L 28 10 z M 16 10 L 17 10 L 17 11 L 16 11 z M 23 10 L 24 10 L 24 12 L 23 12 z M 3 11 L 4 11 L 4 12 L 3 12 z M 18 11 L 19 11 L 19 12 L 21 12 L 21 13 L 20 13 L 20 14 L 19 14 L 19 13 L 17 13 L 17 12 L 18 12 z M 0 12 L 1 12 L 1 13 L 0 13 z M 6 12 L 7 12 L 7 13 L 6 13 z M 22 12 L 23 12 L 23 13 L 22 13 z M 25 12 L 26 12 L 26 13 L 25 13 z M 4 13 L 6 13 L 6 14 L 8 14 L 8 15 L 9 15 L 9 17 L 11 17 L 11 18 L 10 18 L 10 19 L 11 19 L 11 21 L 12 21 L 12 22 L 11 22 L 11 23 L 10 23 L 10 22 L 9 22 L 9 23 L 8 23 L 8 20 L 7 20 L 7 19 L 8 19 L 8 18 L 7 18 L 7 17 L 8 17 L 8 16 L 7 16 L 7 15 L 5 15 L 5 17 L 6 17 L 6 18 L 7 18 L 7 19 L 5 19 L 5 21 L 4 21 L 4 20 L 3 20 L 3 17 L 2 17 L 2 16 L 1 16 L 1 17 L 0 17 L 0 14 L 3 14 L 3 15 L 4 15 z M 21 13 L 22 13 L 22 15 L 21 15 L 21 16 L 22 16 L 22 17 L 24 17 L 24 18 L 23 18 L 23 19 L 21 19 L 21 20 L 20 20 L 20 18 L 21 18 L 21 17 L 19 17 L 19 15 L 20 15 L 20 14 L 21 14 z M 13 14 L 14 14 L 14 15 L 18 15 L 18 17 L 17 17 L 17 16 L 15 16 L 15 17 L 14 17 L 14 16 L 13 16 z M 24 14 L 29 14 L 29 15 L 28 15 L 28 17 L 27 17 L 27 15 L 26 15 L 26 16 L 25 16 L 25 15 L 24 15 z M 23 15 L 24 15 L 24 16 L 23 16 z M 6 16 L 7 16 L 7 17 L 6 17 z M 12 16 L 13 16 L 13 20 L 12 20 L 12 19 L 11 19 L 11 18 L 12 18 z M 1 17 L 2 17 L 2 18 L 1 18 z M 16 17 L 17 17 L 17 18 L 16 18 z M 18 17 L 19 17 L 19 20 L 17 20 L 17 18 L 18 18 z M 25 17 L 26 17 L 26 18 L 25 18 z M 28 17 L 29 17 L 29 20 L 27 20 L 27 18 L 28 18 z M 0 18 L 1 18 L 1 19 L 0 19 z M 14 18 L 15 18 L 15 19 L 14 19 z M 24 18 L 25 18 L 25 19 L 24 19 z M 0 20 L 1 20 L 1 21 L 0 21 z M 2 20 L 3 20 L 3 21 L 2 21 z M 6 20 L 7 20 L 7 21 L 6 21 z M 16 20 L 17 20 L 17 23 L 16 23 z M 26 20 L 27 20 L 27 21 L 29 21 L 29 22 L 28 22 L 28 23 L 27 23 L 27 22 L 26 22 z M 19 21 L 20 21 L 20 22 L 19 22 z M 18 22 L 19 22 L 19 23 L 18 23 z M 14 23 L 16 23 L 16 24 L 14 24 z M 25 23 L 27 23 L 27 24 L 25 24 z M 9 24 L 10 24 L 10 25 L 9 25 z M 12 24 L 13 24 L 13 27 L 16 27 L 16 28 L 15 28 L 15 29 L 13 29 L 13 28 L 12 28 L 12 26 L 11 26 L 11 27 L 10 27 L 10 25 L 12 25 z M 16 24 L 19 24 L 19 25 L 16 25 z M 8 25 L 9 25 L 9 26 L 8 26 z M 20 25 L 21 25 L 21 26 L 20 26 z M 22 25 L 23 25 L 23 26 L 22 26 z M 24 25 L 28 25 L 28 26 L 27 26 L 27 27 L 25 27 L 25 29 L 24 29 z M 16 26 L 17 26 L 17 27 L 16 27 z M 28 26 L 29 26 L 29 27 L 28 27 z M 8 27 L 10 27 L 10 28 L 9 28 L 9 29 L 8 29 z M 17 27 L 19 27 L 19 28 L 18 28 L 18 29 L 16 29 L 16 28 L 17 28 z M 20 27 L 22 27 L 22 29 L 20 29 z M 27 27 L 28 27 L 28 29 L 27 29 z M 11 28 L 12 28 L 12 29 L 11 29 z"></path><path id="qr squares" d="M0,0h7h0v0v7v0h0h-7h0v0v-7v0h0zM1,1h5h0v0v5v0h0h-5h0v0v-5v0h0zM2,2h3h0v0v3v0h0h-3h0v0v-3v0h0z M22,0h7h0v0v7v0h0h-7h0v0v-7v0h0zM23,1h5h0v0v5v0h0h-5h0v0v-5v0h0zM24,2h3h0v0v3v0h0h-3h0v0v-3v0h0z M0,22h7h0v0v7v0h0h-7h0v0v-7v0h0zM1,23h5h0v0v5v0h0h-5h0v0v-5v0h0zM2,24h3h0v0v3v0h0h-3h0v0v-3v0h0zM20,20h5h0v0v5v0h0h-5h0v0v-5v0h0zM21,21h3h0v0v3v0h0h-3h0v0v-3v0h0zM22,22h1h0v0v1v0h0h-1h0v0v-1v0h0z" fill-rule="evenodd" fill-opacity="1" fill="rgb(0, 0, 0)"></path></svg>