<?xml version="1.0" encoding="utf-8" standalone="yes"?> <svg width="1000" height="1000" viewBox="-1 -1 31 31" xmlns="http://www.w3.org/2000/svg" xmlns:xlink="http://www.w3.org/1999/xlink" shape-rendering="crispEdges" id="qr code"><rect id="qr background" fill-opacity="1" fill="rgb(255, 255, 255)" x="-1" y="-1" width="31" height="31"></rect><path fill-opacity="1" fill="rgb(0, 0, 0)" id="qr dark pixels" fill-rule="evenodd" d="M 8 0 L 10 0 L 10 1 L 8 1 z M 14 0 L 15 0 L 15 1 L 14 1 z M 19 0 L 21 0 L 21 1 L 19 1 z M 16 1 L 17 1 L 17 3 L 18 3 L 18 5 L 19 5 L 19 4 L 20 4 L 20 5 L 21 5 L 21 8 L 22 8 L 22 9 L 24 9 L 24 8 L 27 8 L 27 9 L 25 9 L 25 11 L 24 11 L 24 10 L 22 10 L 22 11 L 24 11 L 24 12 L 22 12 L 22 13 L 21 13 L 21 12 L 20 12 L 20 10 L 19 10 L 19 12 L 20 12 L 20 13 L 21 13 L 21 14 L 22 14 L 22 15 L 21 15 L 21 16 L 22 16 L 22 17 L 21 17 L 21 18 L 20 18 L 20 15 L 19 15 L 19 20 L 20 20 L 20 21 L 19 21 L 19 22 L 18 22 L 18 23 L 17 23 L 17 24 L 16 24 L 16 20 L 14 20 L 14 19 L 15 19 L 15 18 L 14 18 L 14 17 L 13 17 L 13 16 L 14 16 L 14 15 L 13 15 L 13 16 L 12 16 L 12 14 L 15 14 L 15 15 L 17 15 L 17 16 L 15 16 L 15 17 L 16 17 L 16 18 L 18 18 L 18 15 L 17 15 L 17 14 L 19 14 L 19 13 L 17 13 L 17 14 L 15 14 L 15 11 L 16 11 L 16 10 L 18 10 L 18 9 L 15 9 L 15 8 L 14 8 L 14 6 L 15 6 L 15 7 L 16 7 L 16 6 L 17 6 L 17 7 L 18 7 L 18 6 L 17 6 L 17 4 L 16 4 L 16 5 L 15 5 L 15 2 L 16 2 zM 19 6 L 20 6 L 20 7 L 19 7 z M 17 11 L 18 11 L 18 12 L 17 12 z M 8 2 L 9 2 L 9 3 L 10 3 L 10 4 L 11 4 L 11 2 L 14 2 L 14 4 L 13 4 L 13 3 L 12 3 L 12 5 L 10 5 L 10 6 L 9 6 L 9 5 L 8 5 z M 19 2 L 21 2 L 21 4 L 20 4 L 20 3 L 19 3 z M 12 5 L 14 5 L 14 6 L 13 6 L 13 7 L 12 7 z M 8 6 L 9 6 L 9 7 L 8 7 z M 10 6 L 11 6 L 11 7 L 10 7 z M 9 7 L 10 7 L 10 8 L 9 8 z M 11 7 L 12 7 L 12 8 L 11 8 z M 0 8 L 4 8 L 4 9 L 0 9 z M 6 8 L 7 8 L 7 9 L 6 9 z M 8 8 L 9 8 L 9 9 L 10 9 L 10 10 L 9 10 L 9 11 L 8 11 z M 28 8 L 29 8 L 29 10 L 28 10 z M 4 9 L 6 9 L 6 10 L 5 10 L 5 11 L 4 11 z M 14 9 L 15 9 L 15 11 L 14 11 L 14 13 L 13 13 L 13 12 L 12 12 L 12 14 L 11 14 L 11 16 L 10 16 L 10 17 L 9 17 L 9 15 L 10 15 L 10 14 L 9 14 L 9 15 L 8 15 L 8 14 L 7 14 L 7 13 L 8 13 L 8 12 L 10 12 L 10 13 L 11 13 L 11 11 L 13 11 L 13 10 L 14 10 z M 6 10 L 7 10 L 7 11 L 6 11 z M 26 10 L 28 10 L 28 11 L 26 11 z M 1 11 L 2 11 L 2 12 L 5 12 L 5 16 L 7 16 L 7 17 L 6 17 L 6 18 L 5 18 L 5 17 L 4 17 L 4 16 L 3 16 L 3 15 L 4 15 L 4 13 L 3 13 L 3 14 L 2 14 L 2 13 L 1 13 z M 7 11 L 8 11 L 8 12 L 7 12 z M 28 11 L 29 11 L 29 12 L 28 12 z M 6 12 L 7 12 L 7 13 L 6 13 z M 25 12 L 27 12 L 27 13 L 29 13 L 29 15 L 28 15 L 28 18 L 27 18 L 27 21 L 29 21 L 29 22 L 28 22 L 28 23 L 29 23 L 29 27 L 28 27 L 28 25 L 26 25 L 26 24 L 27 24 L 27 22 L 26 22 L 26 24 L 25 24 L 25 20 L 26 20 L 26 18 L 25 18 L 25 17 L 24 17 L 24 18 L 23 18 L 23 16 L 24 16 L 24 15 L 25 15 L 25 16 L 26 16 L 26 17 L 27 17 L 27 15 L 26 15 L 26 13 L 25 13 z M 22 13 L 23 13 L 23 14 L 22 14 z M 0 14 L 2 14 L 2 15 L 0 15 z M 6 14 L 7 14 L 7 15 L 6 15 z M 23 14 L 24 14 L 24 15 L 23 15 z M 7 15 L 8 15 L 8 16 L 7 16 z M 2 16 L 3 16 L 3 18 L 1 18 L 1 17 L 2 17 z M 11 16 L 12 16 L 12 17 L 11 17 z M 7 17 L 9 17 L 9 18 L 8 18 L 8 19 L 6 19 L 6 18 L 7 18 z M 12 17 L 13 17 L 13 20 L 14 20 L 14 23 L 11 23 L 11 22 L 12 22 L 12 21 L 11 21 L 11 20 L 12 20 L 12 19 L 10 19 L 10 21 L 9 21 L 9 18 L 12 18 z M 0 18 L 1 18 L 1 19 L 0 19 z M 24 18 L 25 18 L 25 19 L 24 19 z M 2 19 L 6 19 L 6 20 L 8 20 L 8 21 L 3 21 L 3 20 L 2 20 z M 21 19 L 23 19 L 23 20 L 21 20 z M 1 20 L 2 20 L 2 21 L 1 21 z M 8 21 L 9 21 L 9 22 L 8 22 z M 10 21 L 11 21 L 11 22 L 10 22 z M 19 22 L 20 22 L 20 23 L 19 23 z M 9 23 L 10 23 L 10 24 L 11 24 L 11 25 L 10 25 L 10 27 L 9 27 L 9 28 L 10 28 L 10 29 L 8 29 L 8 25 L 9 25 z M 12 24 L 13 24 L 13 26 L 12 26 L 12 28 L 10 28 L 10 27 L 11 27 L 11 25 L 12 25 z M 14 24 L 16 24 L 16 25 L 17 25 L 17 26 L 20 26 L 20 27 L 22 27 L 22 29 L 18 29 L 18 28 L 19 28 L 19 27 L 16 27 L 16 26 L 14 26 z M 17 24 L 19 24 L 19 25 L 17 25 z M 21 25 L 22 25 L 22 26 L 21 26 z M 24 25 L 26 25 L 26 26 L 24 26 z M 13 26 L 14 26 L 14 27 L 13 27 z M 23 26 L 24 26 L 24 29 L 23 29 z M 26 26 L 27 26 L 27 27 L 26 27 z M 14 27 L 16 27 L 16 28 L 15 28 L 15 29 L 14 29 z M 25 27 L 26 27 L 26 29 L 25 29 z M 27 27 L 28 27 L 28 29 L 27 29 z M 12 28 L 13 28 L 13 29 L 12 29 z M 16 28 L 17 28 L 17 29 L 16 29 z"></path><path id="qr squares" d="M0,0h7h0v0v7v0h0h-7h0v0v-7v0h0zM1,1h5h0v0v5v0h0h-5h0v0v-5v0h0zM2,2h3h0v0v3v0h0h-3h0v0v-3v0h0z M22,0h7h0v0v7v0h0h-7h0v0v-7v0h0zM23,1h5h0v0v5v0h0h-5h0v0v-5v0h0zM24,2h3h0v0v3v0h0h-3h0v0v-3v0h0z M0,22h7h0v0v7v0h0h-7h0v0v-7v0h0zM1,23h5h0v0v5v0h0h-5h0v0v-5v0h0zM2,24h3h0v0v3v0h0h-3h0v0v-3v0h0zM20,20h5h0v0v5v0h0h-5h0v0v-5v0h0zM21,21h3h0v0v3v0h0h-3h0v0v-3v0h0zM22,22h1h0v0v1v0h0h-1h0v0v-1v0h0z" fill-rule="evenodd" fill-opacity="1" fill="rgb(0, 0, 0)"></path></svg>